<svg xmlns="http://www.w3.org/2000/svg" version="1.1" xmlns:xlink="http://www.w3.org/1999/xlink" xmlns:svgjs="http://svgjs.com/svgjs" width="512" height="512" x="0" y="0" viewBox="0 0 32 32" style="enable-background:new 0 0 512 512" xml:space="preserve" class=""><g><path fill="#13161c" d="M26 32H6a6 6 0 0 1-6-6V6a6 6 0 0 1 6-6h20a6 6 0 0 1 6 6v20a6 6 0 0 1-6 6z" data-original="#e3f8fa" class=""></path><path fill="#26c6da" d="M22.958 12.202 22 11.68V9.833c0-1.103-.897-2-2-2h-8c-1.103 0-2 .897-2 2v1.847l-.957.522A1.999 1.999 0 0 0 8 13.958v7.208c0 1.103.897 2 2 2h12c1.103 0 2-.897 2-2v-7.208a2 2 0 0 0-1.042-1.756zM9.333 14.791v-.833c0-.244.133-.468.348-.585l.319-.174v1.94zm6.278 3.279-4.278-2.234V9.833c0-.368.299-.667.667-.667h8c.368 0 .667.299.667.667v6.002l-4.276 2.233a.858.858 0 0 1-.78.002zm7.056-3.279-.667.348v-1.941l.319.174a.666.666 0 0 1 .347.585v.834z" data-original="#26c6da" class=""></path><g fill="#8ce1eb"><path d="M14.833 16.017c-.827 0-1.5-.673-1.5-1.5 0-.525.277-1.013.722-1.272a.5.5 0 1 1 .503.865.462.462 0 0 0-.225.408.5.5 0 0 0 1 0 .393.393 0 0 0-.042-.186.5.5 0 0 1 .884-.468c.105.199.158.419.158.654 0 .826-.673 1.499-1.5 1.499z" fill="#16747f" data-original="#8ce1eb" class=""></path><path d="M19.5 15.699a.528.528 0 0 1-.141-.02l-7-2.049a.5.5 0 0 1-.359-.48v-1a.5.5 0 0 1 .363-.481l7-2a.5.5 0 0 1 .637.481v5.049a.496.496 0 0 1-.201.4.494.494 0 0 1-.299.1z" fill="#16747f" data-original="#8ce1eb" class=""></path><path d="M19.5 15.983a.5.5 0 0 1-.5-.5V9.817a.5.5 0 0 1 1 0v5.667a.5.5 0 0 1-.5.499zM12.5 13.983a.5.5 0 0 1-.5-.5v-1.667a.5.5 0 0 1 1 0v1.667a.5.5 0 0 1-.5.5z" fill="#16747f" data-original="#8ce1eb" class=""></path></g></g></svg>